<svg width="180" height="44" viewBox="0 0 180 44" fill="none" xmlns="http://www.w3.org/2000/svg">
  <rect width="44" height="44" rx="12" fill="url(#g)"/>
  <path d="M12 30V14h5.4l4.4 8.6 4.4-8.6H31v16h-4.4V21l-4.6 8h-.5l-4.7-8v9H12Z" fill="white"/>
  <path d="M57 31V13h4.6l5.8 9.5 5.8-9.5h4.6v18h-4.5V20.5l-5.1 8.1h-1.5l-5.1-8.1V31H57Zm27.4 0V13h13.2v3.8h-8.7v3.3h7.9v3.7h-7.9v3.4h8.9V31H84.4Zm18 0V13h4.5v14.1h8.2V31h-12.7Zm21.8.3c-2.7 0-5.2-.8-7.3-2.4l2.1-3.4c1.7 1.2 3.4 1.8 5.3 1.8 1.6 0 2.4-.5 2.4-1.5 0-.6-.3-1-.9-1.3-.6-.3-1.7-.7-3.1-1-3.6-.9-5.4-2.6-5.4-5.2 0-1.7.6-3.1 1.9-4.1 1.3-1 3-1.5 5.1-1.5 2.4 0 4.6.6 6.6 1.9l-1.9 3.5c-1.6-.9-3.1-1.4-4.6-1.4-1.4 0-2.1.5-2.1 1.4 0 .5.3.9.8 1.2.5.3 1.5.6 2.9.9 3.9 1 5.9 2.8 5.9 5.5 0 1.8-.7 3.2-2 4.3-1.3.9-3.1 1.4-5.5 1.4Z" fill="#0A0A1A"/>
  <defs><linearGradient id="g" x1="0" y1="0" x2="44" y2="44"><stop stop-color="#1A1AFF"/><stop offset="1" stop-color="#3B5BFF"/></linearGradient></defs>
</svg>
